<?xml version="1.0" standalone="no"?>
<!DOCTYPE svg PUBLIC "-//W3C//DTD SVG 20010904//EN"
 "http://www.w3.org/TR/2001/REC-SVG-20010904/DTD/svg10.dtd">
<svg version="1.0" xmlns="http://www.w3.org/2000/svg"
 width="150.000000pt" height="150.000000pt" viewBox="0 0 150.000000 150.000000"
 preserveAspectRatio="xMidYMid meet">
<metadata>
Created by potrace 1.11, written by Peter Selinger 2001-2013
</metadata>
<g transform="translate(0.000000,150.000000) scale(0.100000,-0.100000)"
fill="#000000" stroke="none">
<path d="M197 1432 c-15 -4 -43 -20 -63 -37 -72 -60 -69 -34 -72 -595 -2 -278
0 -533 3 -567 6 -57 10 -67 54 -111 40 -41 56 -50 97 -56 57 -7 1033 -7 1082
1 47 8 117 78 131 131 8 30 11 200 9 575 -3 598 1 565 -80 628 l-42 34 -546 2
c-300 0 -557 -2 -573 -5z"/>
</g>
</svg>
